<svg id="main" position ="absolute" xmlns="http://www.w3.org/2000/svg" version="1.1" xmlns:xlink="http://www.w3.org/1999/xlink" xmlns:svgjs="http://svgjs.com/svgjs" width="1440" height="560" preserveAspectRatio="none" viewBox="0 0 1440 560">

<style type="text/css">
        #animated { animation: x ease 8s infinite;}
        #animated2 {animation: y ease-in-out 5s infinite;}
        

        @keyframes x {
           0% { transform: scale(1); }           
           50% { transform: scale(1.1); }
           100% { transform: scale(1); }  
        }

        @keyframes y {
           0% { transform: scale(1); }           
           50% { transform: scale(1.05); }
           100% { transform: scale(1); }  
        }
        
</style>


<g mask="url(&quot;#SvgjsMask1123&quot;)" fill="none">
<rect  width="1440" height="560" x="0" y="0" fill="rgba(12, 12, 12, 1)"></rect>

<path id="animated"  d="M 0,0 C 96,52 288,253.4 480,260 C 672,266.6 768,31.8 960,33 C 1152,34.2 1344,219.4 1440,266L1440 560L0 560z" fill="rgba(219, 219, 219, 1)"></path>
<path id="animated2" d="M 0,481 C 57.6,462.4 172.8,375.6 288,388 C 403.2,400.4 460.8,551.2 576,543 C 691.2,534.8 748.8,362.6 864,347 C 979.2,331.4 1036.8,457.8 1152,465 C 1267.2,472.2 1382.4,399.4 1440,383L1440 560L0 560z" fill="rgba(14, 14, 14, 1)">

    
</path>
</g>
<defs><mask id="SvgjsMask1123">
<rect  width="1440" height="560" fill="#ffffff"></rect>

</mask></defs></svg>

